<?xml version="1.0" encoding="utf-8"?>
<!-- Generator: Adobe Illustrator 27.4.0, SVG Export Plug-In . SVG Version: 6.00 Build 0)  -->
<svg width="20" height="20" version="1.1" id="Capa_1" xmlns="http://www.w3.org/2000/svg" xmlns:xlink="http://www.w3.org/1999/xlink" x="0px" y="0px"
	 viewBox="0 0 20 20" style="enable-background:new 0 0 20 20;" xml:space="preserve">
<style type="text/css">
	.st0{fill:#F2F2F2;}
</style>
<path id="favicon_00000147921171458177543800000013214433687303652742_" class="st0" d="M16.1,0.3H3.9c-2,0-3.6,1.6-3.6,3.6v12.2
	c0,2,1.6,3.6,3.6,3.6h12.2c2,0,3.6-1.6,3.6-3.6V3.9C19.7,1.9,18.1,0.3,16.1,0.3z M17.3,14.9c0,1.3-1.1,2.4-2.4,2.4H5.1
	c-1.3,0-2.4-1.1-2.4-2.4V5.1c0-1.3,1.1-2.4,2.4-2.4l3.6,0v2.9h-3v2.1h3.1v7.6h2.5V7.7h3v-2h-3v-3l3.6,0c1.3,0,2.4,1.1,2.4,2.4V14.9z
	"/>
</svg>
